<svg width="91" height="16" viewBox="0 0 91 16" fill="none" xmlns="http://www.w3.org/2000/svg">
<path d="M70.3428 15.9267C74.219 15.9267 77.3613 12.7844 77.3613 8.90818C77.3613 5.03195 74.219 1.88965 70.3428 1.88965C66.4665 1.88965 63.3242 5.03195 63.3242 8.90818C63.3242 12.7844 66.4665 15.9267 70.3428 15.9267Z" fill="url(#paint0_radial_2516_2149)"/>
<path d="M70.3428 15.9267C74.219 15.9267 77.3613 12.7844 77.3613 8.90818C77.3613 5.03195 74.219 1.88965 70.3428 1.88965C66.4665 1.88965 63.3242 5.03195 63.3242 8.90818C63.3242 12.7844 66.4665 15.9267 70.3428 15.9267Z" fill="url(#paint1_linear_2516_2149)"/>
<path d="M70.3428 15.9267C74.219 15.9267 77.3613 12.7844 77.3613 8.90818C77.3613 5.03195 74.219 1.88965 70.3428 1.88965C66.4665 1.88965 63.3242 5.03195 63.3242 8.90818C63.3242 12.7844 66.4665 15.9267 70.3428 15.9267Z" fill="url(#paint2_linear_2516_2149)"/>
<path d="M7.38092 9.30855C7.38092 11.0988 6.37094 12.0754 4.88806 12.0754C3.71261 12.0754 2.55795 11.4605 2.55795 9.45322V4.19434L0.5 4.19434V9.76064C0.5 12.636 2.28398 13.7584 4.25512 13.7584C5.77417 13.7584 6.84112 13.1604 7.4198 11.985L7.67298 13.5525H9.4452V4.19434H7.38092V9.30855Z" fill="#141414"/>
<path d="M19.2145 13.5565V11.6299H13.7098V1.1709H11.6455L11.6455 13.5565H19.2145Z" fill="#141414"/>
<path d="M25.1326 4.13184C22.3267 4.13184 20.3174 6.21905 20.3174 8.96632C20.3174 11.8563 22.4172 13.7651 25.2774 13.7651C27.4859 13.7651 29.2237 12.445 29.7305 10.7859L27.9022 10.5897C27.504 11.3925 26.6351 12.0704 25.2955 12.0704C23.7387 12.0704 22.5259 11.0714 22.3991 9.62637H29.9478C30.0383 6.09417 27.9927 4.13184 25.1326 4.13184ZM25.1326 5.7909C26.6713 5.7909 27.7574 6.77207 27.8117 8.07435H22.3991C22.5078 6.75423 23.6482 5.7909 25.1326 5.7909Z" fill="#141414"/>
<path d="M25.72 0.0693359L24.3066 2.8217H25.9347L27.8847 0.0693359H25.72Z" fill="#141414"/>
<path d="M35.5247 8.53348L40.2037 4.1985H37.7266L33.5375 8.1208C33.6822 6.45709 33.6668 5.60145 33.6668 1.1709L31.6025 1.1709L31.6025 13.5565H33.6668C33.6668 11.5131 33.646 10.1281 33.5556 8.98883L37.7266 13.5565H40.2037L35.5247 8.53348Z" fill="#141414"/>
<path d="M48.7012 5.98434V5.91201C47.9959 4.6823 46.6349 3.99512 45.2244 3.99512C42.331 3.99512 40.4766 6.07476 40.4766 8.85968C40.4766 11.5723 42.2639 13.766 45.1212 13.766C46.8211 13.766 48.2273 12.9169 48.7337 11.6329V13.5596H50.7979V4.20154H49.0089L48.7012 5.98434ZM45.6124 11.8978C43.8402 11.8978 42.5743 10.65 42.5743 8.87776C42.5743 7.12363 43.8402 5.87584 45.6124 5.87584C47.3665 5.87584 48.7012 7.17788 48.7012 8.87776C48.7012 10.5957 47.3665 11.8978 45.6124 11.8978Z" fill="#141414"/>
<path d="M54.8254 4.19434H53.002L53.002 13.5524H55.0662V7.84122C55.0662 6.39623 56.1478 5.74828 57.9562 5.98337V4.19434C56.8553 4.19434 56.064 4.19434 54.9912 5.66474L54.8254 4.19434Z" fill="#141414"/>
<path d="M58.1608 0.0693359H56.2548C56.2548 0.0693359 55.4772 1.37671 55.2364 2.0648C54.9955 1.37671 54.131 0.0693359 54.131 0.0693359H52.2432L54.3851 2.8217H56.0006L58.1608 0.0693359Z" fill="#141414"/>
<path d="M63.323 4.13184C60.5172 4.13184 58.5078 6.21905 58.5078 8.96632C58.5078 11.8563 60.6077 13.7651 63.4678 13.7651C65.6763 13.7651 67.4141 12.445 67.921 10.7859L66.0927 10.5897C65.6944 11.3925 64.8255 12.0704 63.4859 12.0704C61.9291 12.0704 60.7163 11.0714 60.5896 9.62637H68.1382C68.2287 6.09417 66.1832 4.13184 63.323 4.13184ZM63.323 5.7909C64.8617 5.7909 65.9478 6.77207 66.0021 8.07435H60.5896C60.6982 6.75423 61.8386 5.7909 63.323 5.7909Z" fill="#141414"/>
<path d="M78.4314 13.7651C79.567 13.7651 80.5764 13.4268 81.3515 12.768V10.7914C80.6485 11.4681 79.7293 11.9132 78.6297 11.9132C76.8452 11.9132 75.4933 10.649 75.4933 8.95738C75.4933 7.26577 76.8452 5.98371 78.6297 5.98371C79.7293 5.98371 80.6485 6.42887 81.3515 7.10551V5.129C80.5764 4.47016 79.567 4.13184 78.4314 4.13184C75.4393 4.13184 73.4385 6.17958 73.4385 8.93957C73.4385 11.7174 75.4393 13.7651 78.4314 13.7651Z" fill="#141414"/>
<path d="M82.8617 4.19434V5.95619L87.2717 5.9562L82.6553 13.5524H90.3619V11.7905H85.9012L90.4995 4.19434H82.8617Z" fill="#141414"/>
<defs>
<radialGradient id="paint0_radial_2516_2149" cx="0" cy="0" r="1" gradientUnits="userSpaceOnUse" gradientTransform="translate(77.3332 8.29633) rotate(-15) scale(13.8288 9.91468)">
<stop offset="0.7" stop-color="#FF6E6E"/>
<stop offset="1" stop-color="#B982FF"/>
</radialGradient>
<linearGradient id="paint1_linear_2516_2149" x1="69.7312" y1="15.8989" x2="70.9544" y2="1.91732" gradientUnits="userSpaceOnUse">
<stop stop-color="#AAEBFF"/>
<stop offset="1" stop-color="#FFFFA0" stop-opacity="0"/>
</linearGradient>
<linearGradient id="paint2_linear_2516_2149" x1="66.3189" y1="14.6561" x2="74.3694" y2="3.15871" gradientUnits="userSpaceOnUse">
<stop stop-color="#AAEBFF"/>
<stop offset="1" stop-color="#FFFFA0" stop-opacity="0"/>
</linearGradient>
</defs>
</svg>
